<?xml version="1.0" encoding="utf-8"?>
<!-- Generator: Adobe Illustrator 24.1.0, SVG Export Plug-In . SVG Version: 6.00 Build 0)  -->
<svg version="1.1" id="Calque_1" xmlns="http://www.w3.org/2000/svg" xmlns:xlink="http://www.w3.org/1999/xlink" x="0px" y="0px"
	 viewBox="0 0 40 60" style="enable-background:new 0 0 40 60;" xml:space="preserve">
<style type="text/css">
	.st0{fill:#FFFFFF;}
</style>
<path id="Tracé_136" class="st0" d="M25.84,60c-3.89,0-6.73-0.93-8.51-2.8c-1.78-1.86-2.67-3.87-2.67-6.02
	c-0.02-0.69,0.14-1.38,0.47-1.99c0.3-0.53,0.74-0.97,1.27-1.27c0.61-0.33,1.3-0.49,1.99-0.47c0.69-0.02,1.38,0.14,1.99,0.47
	c0.53,0.3,0.97,0.74,1.27,1.27c0.33,0.61,0.49,1.3,0.47,1.99c0.04,0.83-0.2,1.65-0.68,2.33c-0.4,0.56-0.96,0.97-1.62,1.18
	c0.64,0.81,1.54,1.37,2.55,1.58c1.13,0.33,2.3,0.49,3.48,0.5c1.56,0.02,3.08-0.44,4.38-1.3c1.36-0.94,2.37-2.29,2.89-3.85
	c0.65-1.86,0.96-3.81,0.93-5.78c0.05-2.05-0.3-4.08-1.02-5.99c-0.55-1.53-1.58-2.84-2.95-3.73c-1.26-0.8-2.73-1.22-4.22-1.21
	c-0.99,0-2.24,0.41-3.73,1.24l-2.73,1.37v-1.37l12.3-16.4H14.66v17.02c-0.05,1.23,0.28,2.44,0.93,3.48
	c0.62,0.91,1.57,1.37,2.86,1.37c1.03-0.01,2.04-0.36,2.86-0.99c0.92-0.67,1.71-1.49,2.36-2.42c0.06-0.16,0.17-0.3,0.31-0.4
	c0.11-0.1,0.25-0.15,0.4-0.15c0.3,0.03,0.58,0.15,0.81,0.34c0.28,0.31,0.44,0.72,0.43,1.15c-0.04,0.29-0.09,0.58-0.16,0.87
	c-0.61,1.46-1.62,2.71-2.92,3.6c-1.21,0.82-2.64,1.25-4.1,1.24c-3.69,0-6.23-0.72-7.64-2.17s-2.11-3.42-2.11-5.9V19.75H0v-3.17h8.7
	v-7.2L6.71,7.39V5.78h5.78l2.17,1.12v9.69l22.48-0.06l2.24,2.24L25.59,32.55c0.83-0.33,1.71-0.54,2.61-0.62
	c1.49,0,3.17,0.48,5.03,1.43c1.79,0.84,3.29,2.18,4.35,3.85c0.93,1.42,1.6,3,1.96,4.66c0.29,1.31,0.45,2.64,0.47,3.98
	c0.02,2.56-0.55,5.09-1.68,7.39c-1.07,2.23-2.87,4.02-5.09,5.09C30.93,59.45,28.4,60.02,25.84,60z"/>
</svg>
