<?xml version="1.0" encoding="UTF-8" standalone="no"?>
<svg
   xmlns:dc="http://purl.org/dc/elements/1.1/"
   xmlns:cc="http://creativecommons.org/ns#"
   xmlns:rdf="http://www.w3.org/1999/02/22-rdf-syntax-ns#"
   xmlns:svg="http://www.w3.org/2000/svg"
   xmlns="http://www.w3.org/2000/svg"
   xml:space="preserve"
   style="enable-background:new 0 0 40 60;"
   viewBox="0 0 40 60"
   y="0px"
   x="0px"
   id="Calque_1"
   version="1.1"><metadata
   id="metadata10"><rdf:RDF><cc:Work
       rdf:about=""><dc:format>image/svg+xml</dc:format><dc:type
         rdf:resource="http://purl.org/dc/dcmitype/StillImage" /><dc:title></dc:title></cc:Work></rdf:RDF></metadata><defs
   id="defs8" />
<style
   id="style2"
   type="text/css">
	.st0{fill:#FFFFFF;}
</style>
<path
   style="fill:#ffffff;stroke-width:0.80000001"
   d="m 24.667797,51.687797 c -3.112,0 -5.384,-0.744 -6.808,-2.24 -1.424,-1.488 -2.136,-3.096 -2.136,-4.816 -0.016,-0.552 0.112,-1.104 0.376,-1.592 0.24,-0.424 0.592,-0.776 1.016,-1.016 0.488,-0.264 1.04,-0.392 1.592,-0.376 0.552,-0.016 1.104,0.112 1.592,0.376 0.424,0.24 0.776,0.592 1.016,1.016 0.264,0.488 0.392,1.04 0.376,1.592 0.032,0.664 -0.16,1.32 -0.544,1.864 -0.32,0.448 -0.768,0.776 -1.296,0.944 0.512,0.648 1.232,1.096 2.04,1.264 0.904,0.264 1.84,0.392 2.784,0.4 1.248,0.016 2.464,-0.352 3.504,-1.04 1.088,-0.752 1.896,-1.832 2.312,-3.08 0.52,-1.488 0.768,-3.048 0.744,-4.624 0.04,-1.64 -0.24,-3.264 -0.816,-4.792 -0.44,-1.224 -1.264,-2.272 -2.36,-2.984 -1.008,-0.64 -2.184,-0.976 -3.376,-0.968 -0.792,0 -1.792,0.328 -2.984,0.992 l -2.184,1.096 v -1.096 l 9.84,-13.12 h -13.632 v 13.616 c -0.04,0.984 0.224,1.952 0.744,2.784 0.496,0.728 1.256,1.096 2.288,1.096 0.824,-0.008 1.632,-0.288 2.288,-0.792 0.736,-0.536 1.368,-1.192 1.888,-1.936 0.048,-0.128 0.136,-0.24 0.248,-0.32 0.088,-0.08 0.2,-0.12 0.32,-0.12 0.24,0.024 0.464,0.12 0.648,0.272 0.224,0.248 0.352,0.576 0.344,0.92 -0.032,0.232 -0.072,0.464 -0.128,0.696 -0.488,1.168 -1.296,2.168 -2.336,2.88 -0.968,0.656 -2.112,1 -3.28,0.992 -2.952,0 -4.984,-0.576 -6.112,-1.736 -1.128,-1.16 -1.688,-2.736 -1.688,-4.72 v -13.632 H 3.9957966 v -2.536 h 6.9600004 v -5.76 L 9.3637966,9.5997965 v -1.288 h 4.6240004 l 1.736,0.896 v 7.7520005 l 17.984,-0.048 1.792,1.792 -11.032,11.024 c 0.664,-0.264 1.368,-0.432 2.088,-0.496 1.192,0 2.536,0.384 4.024,1.144 1.432,0.672 2.632,1.744 3.48,3.08 0.744,1.136 1.28,2.4 1.568,3.728 0.232,1.048 0.36,2.112 0.376,3.184 0.016,2.048 -0.44,4.072 -1.344,5.912 -0.856,1.784 -2.296,3.216 -4.072,4.072 -1.848,0.896 -3.872,1.352 -5.92,1.336 z"
   class="st0"
   id="Tracé_136" />
</svg>